<svg xmlns="http://www.w3.org/2000/svg" viewBox="0 0 410 404" width="64" height="64" fill="none">
  <defs>
    <linearGradient id="g" x1="-33.5" y1="12.9" x2="130.9" y2="203.8" gradientUnits="userSpaceOnUse">
      <stop stop-color="#41D1FF"/>
      <stop offset="1" stop-color="#BD34FE"/>
    </linearGradient>
    <linearGradient id="g2" x1="-3.25" y1="-3.0" x2="123.77" y2="135.76" gradientUnits="userSpaceOnUse">
      <stop stop-color="#FFEA83"/>
      <stop offset="0.083" stop-color="#FFDD35"/>
      <stop offset="1" stop-color="#FFA800"/>
    </linearGradient>
  </defs>
  <path d="M399.6 52.4L215.4 388.1c-7.6 13.9-27.5 14-35.2.2L10.4 52.4C2 37.7 13 19.5 29.7 19.5h350.6c16.7 0 27.7 18.2 19.3 32.9z" fill="url(#g)"/>
  <path d="M292.5 65.4L167.4 290.5c-4.3 7.9-15.6 7.9-19.9 0L117.2 239c-3.2-5.8 0.8-13 7.5-13h49c8.6 0 14-9.2 9.7-16.8L148 152.6c-4.3-7.6 1.1-16.8 9.7-16.8h42.8c6.7 0 10.8-7.2 7.5-13L182.4 76.7c-3.2-5.8 0.8-13 7.5-13h94.1c6.6 0 10.7 7.1 7.5 12.8z" fill="url(#g2)"/>
</svg>

